<svg width="77" height="16" viewBox="0 0 77 16" fill="none" xmlns="http://www.w3.org/2000/svg">
<g id="Intense">
<path id="Vector" d="M71.3785 15.7548C67.6806 15.7548 65.0703 13.275 65.0703 9.64234V9.59883C65.0703 6.18369 67.5284 3.44287 71.0088 3.44287C75.0547 3.44287 76.9254 6.42297 76.9254 9.88162C76.9254 10.1426 76.9254 10.4472 76.9037 10.73H69.0293C69.3556 12.0351 70.2692 12.6659 71.5743 12.6659C72.5967 12.6659 73.3363 12.3179 74.1846 11.4696L76.4686 13.362C75.3375 14.8194 73.7278 15.7548 71.3785 15.7548ZM68.964 8.61997H73.0752C72.923 7.31482 72.1399 6.48822 71.0088 6.48822C69.8994 6.48822 69.2033 7.31482 68.964 8.61997Z" fill="#0A4020"/>
<path id="Vector_2" d="M59.4652 15.733C57.464 15.733 55.5498 15.1675 53.9183 13.9711L55.4628 11.4913C56.8332 12.3831 58.2688 12.8399 59.487 12.8399C60.2048 12.8399 60.5529 12.6224 60.5529 12.2091V12.1656C60.5529 11.6653 59.8785 11.4913 58.6386 11.1432C56.3111 10.5559 54.4621 9.75108 54.4621 7.40181V7.3583C54.4621 4.85676 56.4851 3.4646 59.1824 3.4646C60.9226 3.4646 62.6628 3.96491 64.0333 4.83501L62.6193 7.44531C61.4012 6.74923 60.0743 6.33593 59.1389 6.33593C58.5081 6.33593 58.1818 6.57521 58.1818 6.92325V6.96675C58.1818 7.42356 58.8779 7.64108 60.0961 8.01088C62.4236 8.6417 64.2725 9.4683 64.2725 11.7523V11.7958C64.2725 14.3844 62.3366 15.733 59.4652 15.733Z" fill="#0A4020"/>
<path id="Vector_3" d="M41.437 15.472V3.7039H45.57V5.35709C46.3313 4.37823 47.419 3.44287 49.0939 3.44287C51.6172 3.44287 53.0964 5.07431 53.0964 7.77162V15.472H48.9851V9.09853C48.9851 7.79338 48.3326 7.09729 47.3102 7.09729C46.2878 7.09729 45.57 7.79338 45.57 9.09853V15.472H41.437Z" fill="#0A4020"/>
<path id="Vector_4" d="M34.5317 15.7548C30.8338 15.7548 28.2235 13.275 28.2235 9.64234V9.59883C28.2235 6.18369 30.6815 3.44287 34.162 3.44287C38.2079 3.44287 40.0786 6.42297 40.0786 9.88162C40.0786 10.1426 40.0786 10.4472 40.0569 10.73H32.1825C32.5088 12.0351 33.4224 12.6659 34.7275 12.6659C35.7499 12.6659 36.4895 12.3179 37.3378 11.4696L39.6218 13.362C38.4907 14.8194 36.881 15.7548 34.5317 15.7548ZM32.1172 8.61997H36.2284C36.0762 7.31482 35.2931 6.48822 34.162 6.48822C33.0526 6.48822 32.3565 7.31482 32.1172 8.61997Z" fill="#0A4020"/>
<path id="Vector_5" d="M24.7428 15.7112C22.2413 15.7112 20.8056 14.6236 20.8056 11.8175V7.01024H19.4135V3.70385H20.8056V0.723755H24.9168V3.70385H27.6577V7.01024H24.9168V11.0127C24.9168 11.8611 25.2866 12.1873 26.048 12.1873C26.5918 12.1873 27.1138 12.0351 27.6142 11.7958V15.0152C26.8528 15.4285 25.8957 15.7112 24.7428 15.7112Z" fill="#0A4020"/>
<path id="Vector_6" d="M6.7146 15.472V3.7039H10.8476V5.35709C11.6089 4.37823 12.6965 3.44287 14.3715 3.44287C16.8948 3.44287 18.3739 5.07431 18.3739 7.77162V15.472H14.2627V9.09853C14.2627 7.79338 13.6101 7.09729 12.5878 7.09729C11.5654 7.09729 10.8476 7.79338 10.8476 9.09853V15.472H6.7146Z" fill="#0A4020"/>
<path id="Vector_7" d="M0.381348 15.472V0.245239H4.60134V15.472H0.381348Z" fill="#0A4020"/>
</g>
</svg>
